<?xml version="1.0" encoding="UTF-8"?>
<svg xmlns="http://www.w3.org/2000/svg" xmlns:xlink="http://www.w3.org/1999/xlink" version="1.1" viewBox="0 0 268.7 35.3">
  <defs>
    <style>
      .cls-1 {
        isolation: isolate;
      }

      .cls-2 {
        fill: #666;
      }

      .cls-3 {
        fill: #333;
      }
    </style>
  </defs>
  <!-- Generator: Adobe Illustrator 28.7.7, SVG Export Plug-In . SVG Version: 1.2.0 Build 194)  -->
  <g>
    <g id="Layer_1">
      <g class="cls-1">
        <g id="uuid-ad9b6225-d518-4898-81b8-93dc4cc38809">
          <path class="cls-3" d="M40.6,25v1.7c0,2.4.8,3.7,2.6,3.7s2.5-1.6,2.5-4-.7-4.3-3.8-6.7c-3.1-2.4-4.7-3.9-4.7-8.2s1.1-7.4,6-7.4c4.9,0,5.8,3.4,5.8,6.7v1.4h-3.8v-1.3c0-2.2-.4-3.5-2.1-3.5s-2.1,1.4-2.1,3.5.5,3.3,3,5.2c4.2,3.1,5.5,4.9,5.5,9.7s-1.3,7.8-6.5,7.8-6.3-3.2-6.3-7v-1.7h3.9Z"/>
          <path class="cls-3" d="M52.1,4.6h3.8v11.6h5.3V4.6h3.9v28.7h-3.8v-13.6h-5.3v13.6h-3.8s0-28.7,0-28.7Z"/>
          <path class="cls-3" d="M72.5,25l-1.2,8.3h-3.9l4.7-28.7h5.4l4.8,28.7h-4l-1.3-8.3s-4.6,0-4.6,0ZM76.6,21.5c-.8-5.5-1.5-10.2-1.8-13.2h-.2c-.1,2.3-1.1,8.6-1.7,13.2,0,0,3.6,0,3.6,0Z"/>
          <path class="cls-3" d="M84.7,4.6h5.7c6.1,0,7.3,3.4,7.3,8.4v11.1c0,4.4-.7,9.1-7.4,9.1h-5.7V4.6ZM88.6,30h1.6c3.2,0,3.8-1.9,3.8-5.2v-12.1c0-2.9-.5-4.8-3.8-4.8h-1.5v22.1h0Z"/>
          <path class="cls-3" d="M110.8,19.9h-6.4v9.9h7.3l-.5,3.5h-10.6V4.6h10.6v3.6h-6.7v8.1h6.4v3.5h0Z"/>
          <path class="cls-2" d="M121.2,7.4h-8.2v-2.3h8.2s0,2.3,0,2.3ZM115.9,7.2h2.5v26.1h-2.5V7.2Z"/>
          <path class="cls-2" d="M127.9,33.7c-1.3,0-2.4-.4-3.1-1.1-.7-.7-1.1-1.8-1.1-3.1V8.8c0-1.3.4-2.4,1.1-3.1.7-.7,1.8-1.1,3.1-1.1s2.4.4,3.1,1.1c.7.7,1.1,1.8,1.1,3.1v20.8c0,1.4-.4,2.4-1.1,3.1s-1.8,1.1-3.1,1.1ZM127.9,31.4c.5,0,.9-.1,1.2-.5.3-.3.4-.7.4-1.3V8.7c0-.5-.1-1-.4-1.3-.3-.3-.7-.4-1.2-.4s-.9.2-1.2.4c-.3.3-.4.7-.4,1.3v21c0,.5.1,1,.4,1.3.3.3.7.5,1.2.5h0Z"/>
          <path class="cls-3" d="M138.4,25v1.7c0,2.4.8,3.7,2.6,3.7s2.5-1.6,2.5-4-.7-4.3-3.8-6.7c-3.1-2.4-4.7-3.9-4.7-8.2s1.1-7.4,6-7.4c4.9,0,5.8,3.4,5.8,6.7v1.4h-3.8v-1.3c0-2.2-.4-3.5-2.1-3.5s-2.1,1.4-2.1,3.5.4,3.3,3,5.2c4.2,3.1,5.4,4.9,5.4,9.7s-1.3,7.8-6.4,7.8-6.3-3.2-6.3-7v-1.7h3.9Z"/>
          <path class="cls-3" d="M149.9,4.6h3.9v11.6h5.3V4.6h3.9v28.7h-3.9v-13.6h-5.3v13.6h-3.9V4.6Z"/>
          <path class="cls-3" d="M170.3,25l-1.2,8.3h-3.9l4.7-28.7h5.4l4.8,28.7h-4l-1.3-8.3h-4.6,0ZM174.4,21.5c-.8-5.5-1.5-10.2-1.8-13.2h-.1c-.1,2.3-1.1,8.6-1.7,13.2h3.6Z"/>
          <path class="cls-3" d="M182.6,4.6h5.7c6.1,0,7.3,3.4,7.3,8.4v11.1c0,4.4-.7,9.1-7.4,9.1h-5.7V4.6h0ZM186.4,30h1.6c3.1,0,3.8-1.9,3.8-5.2v-12.1c0-2.9-.5-4.8-3.8-4.8h-1.6v22.1h0Z"/>
          <path class="cls-3" d="M208.7,19.9h-6.4v9.9h7.3l-.5,3.5h-10.6V4.6h10.6v3.6h-6.7v8.1h6.4v3.5h0Z"/>
          <path class="cls-2" d="M219.5,7.4h-8.2v-2.3h8.2v2.3ZM214.2,7.2h2.5v26.1h-2.5V7.2Z"/>
          <path class="cls-2" d="M222.5,5.1h4.1l2.7,28.2h-2.5l-2.3-27.6h0l-2.2,27.6h-2.5l2.7-28.2h0ZM222.6,24.2h3.9v2.3h-3.9v-2.3Z"/>
          <path class="cls-2" d="M237.7,7.4h-8.2v-2.3h8.2v2.3ZM232.4,7.2h2.5v26.1h-2.5V7.2Z"/>
          <path class="cls-2" d="M247.5,7.4h-8.2v-2.3h8.2v2.3ZM242.2,7.2h2.5v26.1h-2.5V7.2Z"/>
          <path class="cls-2" d="M253.7,33.7c-1.4,0-2.4-.4-3.1-1.1s-1.1-1.8-1.1-3.1V8.8c0-1.3.4-2.4,1.1-3.1.7-.7,1.8-1.1,3.1-1.1s2.4.4,3.1,1.1c.7.7,1.1,1.8,1.1,3.1v20.8c0,1.4-.4,2.4-1.1,3.1s-1.8,1.1-3.1,1.1h0ZM253.7,31.4c.5,0,.9-.1,1.2-.5.3-.3.4-.7.4-1.3V8.7c0-.5-.1-1-.4-1.3-.3-.3-.7-.4-1.2-.4s-.9.2-1.2.4c-.3.3-.4.7-.4,1.3v21c0,.5.1,1,.4,1.3.3.3.7.5,1.2.5h0Z"/>
          <path class="cls-2" d="M264.5,33.7c-1.4,0-2.4-.4-3.1-1.1s-1.1-1.8-1.1-3.1V8.8c0-1.3.4-2.4,1.1-3.1.7-.7,1.8-1.1,3.1-1.1s2.4.4,3.1,1.1c.7.7,1.1,1.8,1.1,3.1v20.8c0,1.4-.4,2.4-1.1,3.1s-1.8,1.1-3.1,1.1ZM264.5,31.4c.5,0,1-.1,1.2-.5.3-.3.4-.7.4-1.3V8.7c0-.5-.1-1-.4-1.3-.3-.3-.7-.4-1.2-.4s-1,.2-1.2.4c-.3.3-.4.7-.4,1.3v21c0,.5.1,1,.4,1.3.3.3.7.5,1.2.5h0Z"/>
        </g>
        <rect class="cls-3" x="-65.9" y="-44" width="36.6" height="79.3"/>
      </g>
      <image width="267" height="252" transform="translate(1 2.3) scale(.1)" xlink:href="../../../../../Downloads/Untitled_Artwork 3.png"/>
    </g>
  </g>
</svg>