<?xml version="1.0" encoding="UTF-8"?>
<svg id="Layer_1" xmlns="http://www.w3.org/2000/svg" xmlns:xlink="http://www.w3.org/1999/xlink" viewBox="0 0 267.69 32.39">
  <defs>
    <style>
      .cls-1 {
        isolation: isolate;
      }

      .cls-2 {
        fill: #fff;
      }

      .cls-3 {
        fill: #d3d2d2;
      }
    </style>
  </defs>
  <g class="cls-1">
    <g id="uuid-ad9b6225-d518-4898-81b8-93dc4cc38809">
      <path class="cls-2" d="M39.6,22.75v1.73c0,2.37.76,3.67,2.58,3.67s2.46-1.57,2.46-3.97c0-3.2-.69-4.3-3.75-6.7-3.08-2.42-4.69-3.93-4.69-8.17,0-3.72,1.12-7.39,6.01-7.38,4.86,0,5.81,3.39,5.81,6.73v1.45h-3.82v-1.34c0-2.16-.39-3.51-2.07-3.51s-2.09,1.45-2.09,3.5c0,2.3.45,3.3,3.01,5.2,4.16,3.1,5.45,4.88,5.45,9.66,0,4.05-1.31,7.83-6.45,7.83s-6.32-3.23-6.32-7.01v-1.68h3.87Z"/>
      <path class="cls-2" d="M51.11,2.36h3.85v11.56h5.27V2.36h3.85v28.68h-3.85v-13.58h-5.27v13.58h-3.85s0-28.68,0-28.68Z"/>
      <path class="cls-2" d="M71.49,22.74l-1.16,8.3h-3.91l4.66-28.68h5.45l4.84,28.68h-4.02l-1.27-8.3s-4.59,0-4.59,0ZM75.61,19.2c-.8-5.48-1.47-10.21-1.77-13.23h-.15c-.12,2.3-1.05,8.57-1.7,13.23,0,0,3.62,0,3.62,0Z"/>
      <path class="cls-2" d="M83.73,2.36h5.74c6.13,0,7.32,3.44,7.32,8.44v11.14c0,4.39-.72,9.11-7.4,9.11h-5.66V2.36ZM87.58,27.74h1.55c3.15,0,3.75-1.91,3.75-5.21v-12.09c0-2.92-.52-4.75-3.75-4.75h-1.54v22.06h-.01Z"/>
      <path class="cls-2" d="M109.86,17.6h-6.36v9.9h7.28l-.5,3.54h-10.63V2.36h10.56v3.57h-6.71v8.14h6.36v3.54h0Z"/>
      <path class="cls-3" d="M120.25,5.11h-8.16v-2.32h8.16s0,2.32,0,2.32ZM114.93,4.94h2.49v26.1h-2.49V4.94Z"/>
      <path class="cls-3" d="M126.87,31.46c-1.35,0-2.38-.36-3.09-1.07-.72-.72-1.07-1.75-1.07-3.09V6.52c0-1.34.36-2.37,1.07-3.09.72-.71,1.75-1.07,3.09-1.07s2.38.36,3.09,1.07c.72.72,1.07,1.75,1.07,3.09v20.78c0,1.35-.36,2.38-1.07,3.09s-1.75,1.07-3.09,1.07ZM126.87,29.1c.54,0,.95-.15,1.22-.45.27-.3.41-.72.41-1.27V6.44c0-.54-.14-.97-.41-1.27-.27-.3-.68-.45-1.22-.45s-.95.15-1.22.45c-.27.3-.41.72-.41,1.27v20.95c0,.54.14.97.41,1.27.27.3.68.45,1.22.45h0Z"/>
      <path class="cls-2" d="M137.43,22.75v1.73c0,2.37.76,3.67,2.58,3.67s2.46-1.57,2.46-3.97c0-3.2-.69-4.3-3.75-6.7-3.08-2.42-4.69-3.93-4.69-8.17,0-3.72,1.12-7.39,6.01-7.38,4.86,0,5.81,3.39,5.81,6.73v1.45h-3.82v-1.34c0-2.16-.39-3.51-2.07-3.51s-2.09,1.45-2.09,3.5c0,2.3.45,3.3,3.01,5.2,4.16,3.1,5.45,4.88,5.45,9.66,0,4.05-1.31,7.83-6.45,7.83s-6.32-3.23-6.32-7.01v-1.68h3.87Z"/>
      <path class="cls-2" d="M148.95,2.36h3.85v11.56h5.27V2.36h3.85v28.68h-3.85v-13.58h-5.27v13.58h-3.85V2.36Z"/>
      <path class="cls-2" d="M169.32,22.74l-1.16,8.3h-3.91l4.66-28.68h5.45l4.84,28.68h-4.02l-1.27-8.3h-4.59,0ZM173.44,19.2c-.8-5.48-1.47-10.21-1.77-13.23h-.15c-.12,2.3-1.05,8.57-1.7,13.23h3.62Z"/>
      <path class="cls-2" d="M181.57,2.36h5.74c6.13,0,7.32,3.44,7.32,8.44v11.14c0,4.39-.72,9.11-7.4,9.11h-5.66V2.36h0ZM185.42,27.74h1.55c3.15,0,3.75-1.91,3.75-5.21v-12.09c0-2.92-.52-4.75-3.75-4.75h-1.55v22.06h0Z"/>
      <path class="cls-2" d="M207.69,17.6h-6.36v9.9h7.28l-.5,3.54h-10.63V2.36h10.56v3.57h-6.71v8.14h6.36v3.54h0Z"/>
      <path class="cls-3" d="M218.52,5.11h-8.16v-2.32h8.16v2.32ZM213.19,4.94h2.49v26.1h-2.49V4.94Z"/>
      <path class="cls-3" d="M221.51,2.79h4.08l2.7,28.25h-2.53l-2.27-27.64h.09l-2.23,27.64h-2.53l2.7-28.25h0ZM221.59,21.89h3.91v2.32h-3.91v-2.32Z"/>
      <path class="cls-3" d="M236.73,5.11h-8.16v-2.32h8.16v2.32ZM231.41,4.94h2.49v26.1h-2.49V4.94Z"/>
      <path class="cls-3" d="M246.52,5.11h-8.16v-2.32h8.16v2.32ZM241.2,4.94h2.49v26.1h-2.49V4.94Z"/>
      <path class="cls-3" d="M252.72,31.46c-1.35,0-2.38-.36-3.09-1.07s-1.07-1.75-1.07-3.09V6.52c0-1.34.36-2.37,1.07-3.09.72-.71,1.75-1.07,3.09-1.07s2.38.36,3.09,1.07c.72.72,1.07,1.75,1.07,3.09v20.78c0,1.35-.36,2.38-1.07,3.09s-1.75,1.07-3.09,1.07h0ZM252.72,29.1c.54,0,.95-.15,1.22-.45.27-.3.41-.72.41-1.27V6.44c0-.54-.14-.97-.41-1.27-.27-.3-.68-.45-1.22-.45s-.95.15-1.22.45c-.27.3-.41.72-.41,1.27v20.95c0,.54.14.97.41,1.27.27.3.68.45,1.22.45h0Z"/>
      <path class="cls-3" d="M263.53,31.46c-1.35,0-2.38-.36-3.09-1.07s-1.07-1.75-1.07-3.09V6.52c0-1.34.36-2.37,1.07-3.09.72-.71,1.75-1.07,3.09-1.07s2.38.36,3.09,1.07c.72.72,1.07,1.75,1.07,3.09v20.78c0,1.35-.36,2.38-1.07,3.09s-1.75,1.07-3.09,1.07ZM263.53,29.1c.54,0,.95-.15,1.22-.45.27-.3.41-.72.41-1.27V6.44c0-.54-.14-.97-.41-1.27-.27-.3-.68-.45-1.22-.45s-.95.15-1.22.45c-.27.3-.41.72-.41,1.27v20.95c0,.54.14.97.41,1.27.27.3.68.45,1.22.45h0Z"/>
    </g>
  </g>
  <image width="267" height="252" transform="scale(.13)" xlink:href="../../../../../Downloads/Untitled_Artwork 3.png"/>
</svg>